#N canvas -8 0 1920 976 12;
#X obj 640 47 bng 19 250 50 0 empty empty empty 0 -10 0 12 #fcfcfc #000000 #000000;
#X obj 913 394 vline~;
#X obj 644 475 *~;
#X obj 639 557 dac~;
#X obj 642 409 mtof;
#X obj 817 509 hsl 162 19 0 1 0 0 empty empty empty -2 -10 0 12 #fcfcfc #000000 #000000 0 1;
#X obj 644 512 *~;
#X obj 41 30 tgl 19 0 empty empty empty 0 -10 0 12 #fcfcfc #000000 #000000 0 1;
#X msg 41 61 \; pd dsp \$1;
#X floatatom 576 80 5 0 0 0 - - - 0;
#X obj 642 170 f;
#X obj 683 171 + 1;
#X obj 663 80 tgl 19 0 empty empty empty 0 -10 0 12 #fcfcfc #000000 #000000 0 1;
#X obj 691 115 metro 170;
#X floatatom 803 84 5 0 0 0 - - - 0;
#X obj 636 369 + 40;
#X obj 643 444 osc~;
#X obj 714 316 + 15;
#X obj 609 228 mod 5;
#X obj 850 217 vsl 19 162 40 76 0 0 empty empty empty 0 -9 0 12 #fcfcfc #000000 #000000 0 1;
#X floatatom 734 368 5 0 0 0 - - - 0;
#X msg 913 167 1 5 \, 0 500 80;
#X obj 790 300 bng 19 250 50 0 empty empty empty 0 -10 0 12 #fcfcfc #000000 #000000;
#X obj 604 267 select 0 1 2 3 4;
#X obj 760 59 bng 19 250 50 0 empty empty empty 0 -10 0 12 #fcfcfc #000000 #000000;
#X obj 898 30 loadbang;
#X msg 853 54 105;
#X msg 852 183 50;
#X text 784 384 Pitch Slider;
#X text 858 490 Volume Slider;
#X text 664 218 stop after play;
#X obj 557 313 + 8;
#X obj 596 314 + 5;
#X obj 626 314 + 13;
#X obj 669 315 + 10;
#X text 173 335 creation arguments are OSC address;
#X text 162 296 set message to change OSC address;
#X floatatom 26 252 5 0 0 0 - - - 0;
#N canvas 52 46 952 688 oscReceive 0;
#X obj 55 184 netreceive -u -b;
#X msg 78 143 listen 0;
#X text 152 143 stop listening;
#X text 64 58 packets from network;
#X text 173 177 UDP packets \, binary output, f 13;
#X obj 45 314 print;
#X obj 45 272 oscparse;
#X text 150 114 listen on port 8000;
#X obj 177 269 oscparse;
#X obj 177 293 list trim;
#X floatatom 39 379 5 0 0 0 - - - 0;
#X text 241 267 Parse the OSC message;
#X obj 177 319 route unity;
#X msg 66 115 listen 8000;
#X obj 66 84 loadbang;
#X floatatom 243 386 5 0 0 0 - - - 0;
#X floatatom 240 476 5 0 0 0 - - - 0;
#X floatatom 234 561 5 0 0 0 - - - 0;
#X obj 38 356 route jingle;
#X obj 39 406 s jingle;
#X obj 242 363 route startDist;
#X obj 243 413 s startDist;
#X obj 239 453 route setFreq;
#X obj 240 503 s setFreq;
#X obj 233 538 route fmVol;
#X obj 234 588 s fmVol;
#X floatatom 125 564 5 0 0 0 - - - 0;
#X obj 124 541 route mainVol;
#X obj 125 591 s mainVol;
#X floatatom 23 564 5 0 0 0 - - - 0;
#X obj 22 541 route pAngle;
#X obj 23 591 s pAngle;
#X connect 0 0 6 0;
#X connect 0 0 8 0;
#X connect 1 0 0 0;
#X connect 6 0 5 0;
#X connect 8 0 9 0;
#X connect 9 0 12 0;
#X connect 10 0 19 0;
#X connect 12 0 18 0;
#X connect 12 0 20 0;
#X connect 12 0 22 0;
#X connect 12 0 24 0;
#X connect 12 0 27 0;
#X connect 12 0 30 0;
#X connect 13 0 0 0;
#X connect 14 0 13 0;
#X connect 15 0 21 0;
#X connect 16 0 23 0;
#X connect 17 0 25 0;
#X connect 18 0 10 0;
#X connect 20 0 15 0;
#X connect 22 0 16 0;
#X connect 24 0 17 0;
#X connect 26 0 28 0;
#X connect 27 0 26 0;
#X connect 29 0 31 0;
#X connect 30 0 29 0;
#X restore 24 220 pd oscReceive;
#X obj 27 336 oscformat PD message;
#X msg 59 297 set PD message;
#N canvas 727 97 450 300 oscSend 0;
#X msg 158 207 disconnect;
#X obj 61 253 netsend -u -b;
#X obj 59 55 list prepend send;
#X obj 59 80 list trim;
#X msg 150 175 connect 127.0.0.1 8001;
#X obj 59 29 r oscOut;
#X text 301 163 send to port 8001;
#X msg 147 148 connect localhost 8001;
#X obj 147 108 loadbang;
#X connect 0 0 1 0;
#X connect 2 0 3 0;
#X connect 3 0 1 0;
#X connect 4 0 1 0;
#X connect 5 0 2 0;
#X connect 7 0 1 0;
#X connect 8 0 7 0;
#X restore 24 196 pd oscSend;
#X obj 27 371 s oscOut;
#X obj 588 10 r jingle;
#X obj 814 444 r jingle;
#X floatatom 814 479 5 0 0 0 - - - 0;
#X text 362 14 Jingle for collectible pickups;
#X text 878 442 receives volume val from unity;
#X text 23 165 OSC Setup;
#X obj 1280 291 osc~;
#X obj 1344 415 *~;
#X obj 1427 131 vsl 19 162 0 1 0 0 empty empty empty 0 -9 0 12 #fcfcfc #000000 #000000 0 1;
#X obj 1407 635 dac~;
#X obj 1325 367 *~;
#X floatatom 1267 252 5 0 0 0 - - - 0;
#X obj 1350 278 osc~;
#X floatatom 1349 252 5 0 0 0 - - - 0;
#X obj 1350 311 *~;
#X obj 1395 130 vsl 19 162 0 1 0 0 empty empty empty 0 -9 0 12 #fcfcfc #000000 #000000 0 1;
#X obj 1467 258 hsl 180 19 0 360 0 0 empty empty empty -2 -10 0 12 #fcfcfc #000000 #000000 0 1;
#X floatatom 1464 291 5 0 0 0 - - - 0;
#X obj 1385 539 *~;
#X obj 1435 539 *~;
#X obj 1232 169 bng 19 250 50 0 empty empty empty 0 -10 0 12 #fcfcfc #000000 #000000;
#X floatatom 1465 369 5 0 0 0 - - - 0;
#X obj 1464 314 / 180;
#X floatatom 1755 343 5 0 0 0 - - - 0;
#X obj 1756 295 atan;
#X msg 1756 270 1;
#X obj 1755 319 * 4;
#X floatatom 1757 456 5 0 0 0 - - - 0;
#X floatatom 1465 438 5 0 0 0 - - - 0;
#X obj 1465 400 expr (sin($f2 * $f1) - $f1 * $f1)/3 + 0.5 \; (sin(-1 * $f2 * $f1) - $f1 * $f1)/3 + 0.5 \;;
#X text 1808 303 Pi;
#X text 1786 362 Approximates appropiate values for hearing a sound source at different angles. input should be -180 degrees to 180 degrees;
#X obj 1756 247 loadbang;
#X text 1488 224 Input: angle of correct path from player;
#X text 1015 254 Left Number: freq Right Number: FM;
#X text 1453 142 Left Slider: FM Volume Right Slider: Overall volume;
#X obj 1262 130 r startDist;
#X obj 1146 147 r setFreq;
#X msg 1348 221 1;
#X obj 1321 180 loadbang;
#X obj 1462 179 r pAngle;
#X floatatom 1463 206 5 0 0 0 - - - 0;
#X floatatom 1440 103 5 0 0 0 - - - 0;
#X floatatom 1379 105 5 0 0 0 - - - 0;
#X obj 1442 59 r mainVol;
#X obj 1377 58 r fmVol;
#X obj 1464 342 - 1;
#X floatatom 1270 177 5 0 0 0 - - - 0;
#X connect 0 0 9 0;
#X connect 0 0 12 0;
#X connect 1 0 2 1;
#X connect 2 0 6 0;
#X connect 4 0 16 0;
#X connect 5 0 6 1;
#X connect 6 0 3 0;
#X connect 6 0 3 1;
#X connect 7 0 8 0;
#X connect 9 0 10 1;
#X connect 10 0 11 0;
#X connect 10 0 18 0;
#X connect 11 0 10 1;
#X connect 12 0 13 0;
#X connect 13 0 10 0;
#X connect 13 0 21 0;
#X connect 14 0 13 1;
#X connect 15 0 4 0;
#X connect 16 0 2 0;
#X connect 17 0 15 0;
#X connect 18 0 23 0;
#X connect 19 0 20 0;
#X connect 20 0 15 1;
#X connect 21 0 1 0;
#X connect 22 0 24 0;
#X connect 23 0 31 0;
#X connect 23 1 32 0;
#X connect 23 2 33 0;
#X connect 23 3 34 0;
#X connect 23 4 17 0;
#X connect 23 4 22 0;
#X connect 24 0 0 0;
#X connect 25 0 26 0;
#X connect 25 0 27 0;
#X connect 26 0 14 0;
#X connect 27 0 19 0;
#X connect 31 0 15 0;
#X connect 32 0 15 0;
#X connect 33 0 15 0;
#X connect 34 0 15 0;
#X connect 37 0 39 0;
#X connect 39 0 42 0;
#X connect 40 0 39 0;
#X connect 43 0 0 0;
#X connect 44 0 45 0;
#X connect 45 0 5 0;
#X connect 49 0 53 0;
#X connect 50 0 61 0;
#X connect 50 0 62 0;
#X connect 51 0 50 1;
#X connect 53 0 50 0;
#X connect 54 0 49 0;
#X connect 55 0 57 0;
#X connect 56 0 55 0;
#X connect 57 0 53 1;
#X connect 58 0 57 1;
#X connect 59 0 60 0;
#X connect 60 0 65 0;
#X connect 61 0 52 0;
#X connect 62 0 52 1;
#X connect 63 0 54 0;
#X connect 64 0 72 0;
#X connect 65 0 89 0;
#X connect 66 0 72 1;
#X connect 67 0 69 0;
#X connect 68 0 67 0;
#X connect 69 0 66 0;
#X connect 70 0 62 1;
#X connect 71 0 61 1;
#X connect 72 0 71 0;
#X connect 72 1 70 0;
#X connect 75 0 68 0;
#X connect 79 0 63 0;
#X connect 79 0 90 0;
#X connect 80 0 54 0;
#X connect 81 0 56 0;
#X connect 82 0 81 0;
#X connect 83 0 84 0;
#X connect 84 0 59 0;
#X connect 85 0 51 0;
#X connect 86 0 58 0;
#X connect 87 0 85 0;
#X connect 88 0 86 0;
#X connect 89 0 64 0;
#X connect 90 0 54 0;
