#N canvas 718 281 1159 556 12;
#X obj 248 23 bng 19 250 50 0 empty empty empty 0 -10 0 12 #fcfcfc #000000 #000000;
#X obj 521 370 vline~;
#X obj 252 451 *~;
#X obj 247 533 dac~;
#X obj 250 385 mtof;
#X obj 341 469 hsl 162 19 0 1 0 0 empty empty empty -2 -10 0 12 #fcfcfc #000000 #000000 0 1;
#X obj 252 488 *~;
#X obj 41 30 tgl 19 0 empty empty empty 0 -10 0 12 #fcfcfc #000000 #000000 0 1;
#X msg 41 96 \; pd dsp \$1;
#X floatatom 184 56 5 0 0 0 - - - 0;
#X obj 250 146 f;
#X obj 291 147 + 1;
#X obj 271 56 tgl 19 0 empty empty empty 0 -10 0 12 #fcfcfc #000000 #000000 0 1;
#X obj 299 91 metro 170;
#X floatatom 411 60 5 0 0 0 - - - 0;
#X obj 244 345 + 40;
#X obj 251 420 osc~;
#X obj 322 292 + 15;
#X obj 217 204 mod 5;
#X obj 458 193 vsl 19 162 40 76 0 0 empty empty empty 0 -9 0 12 #fcfcfc #000000 #000000 0 1;
#X floatatom 342 344 5 0 0 0 - - - 0;
#X msg 521 143 1 5 \, 0 500 80;
#X obj 398 276 bng 19 250 50 0 empty empty empty 0 -10 0 12 #fcfcfc #000000 #000000;
#X obj 212 243 select 0 1 2 3 4;
#X obj 368 35 bng 19 250 50 0 empty empty empty 0 -10 0 12 #fcfcfc #000000 #000000;
#X obj 506 6 loadbang;
#X msg 461 30 105;
#X msg 460 159 50;
#X text 392 360 Pitch Slider;
#X text 382 450 Volume Slider;
#X text 272 194 stop after play;
#X obj 165 289 + 8;
#X obj 204 290 + 5;
#X obj 234 290 + 13;
#X obj 277 291 + 10;
#X connect 0 0 9 0;
#X connect 0 0 12 0;
#X connect 1 0 2 1;
#X connect 2 0 6 0;
#X connect 4 0 16 0;
#X connect 5 0 6 1;
#X connect 6 0 3 0;
#X connect 6 0 3 1;
#X connect 7 0 8 0;
#X connect 9 0 10 1;
#X connect 10 0 11 0;
#X connect 10 0 18 0;
#X connect 11 0 10 1;
#X connect 12 0 13 0;
#X connect 13 0 10 0;
#X connect 13 0 21 0;
#X connect 14 0 13 1;
#X connect 15 0 4 0;
#X connect 16 0 2 0;
#X connect 17 0 15 0;
#X connect 18 0 23 0;
#X connect 19 0 20 0;
#X connect 20 0 15 1;
#X connect 21 0 1 0;
#X connect 22 0 24 0;
#X connect 23 0 31 0;
#X connect 23 1 32 0;
#X connect 23 2 33 0;
#X connect 23 3 34 0;
#X connect 23 4 17 0;
#X connect 23 4 22 0;
#X connect 24 0 0 0;
#X connect 25 0 26 0;
#X connect 25 0 27 0;
#X connect 26 0 14 0;
#X connect 27 0 19 0;
#X connect 31 0 15 0;
#X connect 32 0 15 0;
#X connect 33 0 15 0;
#X connect 34 0 15 0;
