#N canvas 282 1 1920 997 12;
#X obj 264 186 tgl 19 0 empty empty empty 0 -10 0 12 #fcfcfc #000000 #000000 0 1;
#X msg 264 221 \; pd dsp \$1;
#X obj 254 386 osc~;
#X obj 318 510 *~;
#X obj 401 226 vsl 19 162 0 1 0 0 empty empty empty 0 -9 0 12 #fcfcfc #000000 #000000 0 1;
#X obj 381 730 dac~;
#X obj 299 462 *~;
#X floatatom 241 347 5 0 0 0 - - - 0;
#X obj 324 373 osc~;
#X floatatom 323 347 5 0 0 0 - - - 0;
#X obj 324 406 *~;
#X obj 369 225 vsl 19 162 0 1 0 0 empty empty empty 0 -9 0 12 #fcfcfc #000000 #000000 0 1;
#X obj 441 353 hsl 180 19 -180 180 0 0 empty empty empty -2 -10 0 12 #fcfcfc #000000 #000000 0 1;
#X floatatom 438 386 5 0 0 0 - - - 0;
#X obj 359 634 *~;
#X obj 409 634 *~;
#X obj 239 281 bng 19 250 50 0 empty empty empty 0 -10 0 12 #fcfcfc #000000 #000000;
#X floatatom 438 433 5 0 0 0 - - - 0;
#X obj 438 409 / 180;
#X floatatom 729 438 5 0 0 0 - - - 0;
#X obj 730 390 atan;
#X msg 730 365 1;
#X obj 729 414 * 4;
#X floatatom 729 506 5 0 0 0 - - - 0;
#X floatatom 438 502 5 0 0 0 - - - 0;
#X obj 438 464 expr (sin($f2 * $f1) - $f1 * $f1)/3 + 0.5 \; (sin(-1 * $f2 * $f1) - $f1 * $f1)/3 + 0.5 \;;
#X text 782 398 Pi;
#X text 760 457 Approximates appropiate values for hearing a sound source at different angles. input should be -180 degrees to 180 degrees;
#X obj 730 342 loadbang;
#X text 437 326 Input: angle of correct path from player;
#X text 46 333 Left Number: freq Right Number: FM;
#X text 383 155 Left Slider: FM Volume Right Slider: Overall volume;
#X connect 0 0 1 0;
#X connect 2 0 6 0;
#X connect 3 0 14 0;
#X connect 3 0 15 0;
#X connect 4 0 3 1;
#X connect 6 0 3 0;
#X connect 7 0 2 0;
#X connect 8 0 10 0;
#X connect 9 0 8 0;
#X connect 10 0 6 1;
#X connect 11 0 10 1;
#X connect 12 0 13 0;
#X connect 13 0 18 0;
#X connect 14 0 5 0;
#X connect 15 0 5 1;
#X connect 16 0 7 0;
#X connect 17 0 25 0;
#X connect 18 0 17 0;
#X connect 19 0 25 1;
#X connect 20 0 22 0;
#X connect 21 0 20 0;
#X connect 22 0 19 0;
#X connect 23 0 15 1;
#X connect 24 0 14 1;
#X connect 25 0 24 0;
#X connect 25 1 23 0;
#X connect 28 0 21 0;
